<?xml version="1.0" encoding="UTF-8"?>
<svg width="64px" height="62px" viewBox="0 0 64 62" version="1.1" xmlns="http://www.w3.org/2000/svg" xmlns:xlink="http://www.w3.org/1999/xlink">
    <title>train icon</title>
    <g id="Page-1" stroke="none" stroke-width="1" fill="none" fill-rule="evenodd">
        <g id="noun_Train_893907" fill="#7CAF52" fill-rule="nonzero">
            <g id="Group">
                <g id="Shape">
                    <path d="M17.6223552,62 L13.172704,62 C5.98233689,62 0.153392437,56.1671868 0.153392437,48.9460632 L0.153392437,13.0539368 C0.153392437,5.84444632 5.97512842,0 13.172704,0 L50.5245566,0 C57.7149237,0 63.5438681,5.83281316 63.5438681,13.0539368 L63.5438681,48.9460632 C63.5438681,56.1555537 57.7221323,62 50.5245566,62 L44.1467507,62 L17.6223552,62 Z M22.908948,7.34210526 C22.908948,8.70316842 24.005206,9.78947368 25.3575085,9.78947368 L38.3397527,9.78947368 C39.6967931,9.78947368 40.7883131,8.69375421 40.7883131,7.34210526 C40.7883131,5.98104211 39.6920552,4.89473684 38.3397527,4.89473684 L25.3575085,4.89473684 C24.0004681,4.89473684 22.908948,5.99045632 22.908948,7.34210526 Z M5.02958291,16.3202926 L5.02958291,30.9954968 C5.02958291,32.8052768 6.48667591,34.2631579 8.28409125,34.2631579 L55.41317,34.2631579 C57.20517,34.2631579 58.6676777,32.80017 58.6676777,30.9954968 L58.6676777,16.3202926 C58.6676777,14.5105126 57.2105858,13.0526316 55.41317,13.0526316 L8.28409125,13.0526316 C6.4920906,13.0526316 5.02958291,14.5156195 5.02958291,16.3202926 Z M13.156567,53.8421053 C15.8496128,53.8421053 18.0327575,51.65065 18.0327575,48.9473684 C18.0327575,46.2440868 15.8496128,44.0526316 13.156567,44.0526316 C10.4635215,44.0526316 8.28037656,46.2440868 8.28037656,48.9473684 C8.28037656,51.65065 10.4635215,53.8421053 13.156567,53.8421053 Z M50.5406935,53.8421053 C53.2337404,53.8421053 55.416884,51.65065 55.416884,48.9473684 C55.416884,46.2440868 53.2337404,44.0526316 50.5406935,44.0526316 C47.8476485,44.0526316 45.6645035,46.2440868 45.6645035,48.9473684 C45.6645035,51.65065 47.8476485,53.8421053 50.5406935,53.8421053 Z"></path>
                </g>
            </g>
        </g>
    </g>
</svg>